<svg xmlns="http://www.w3.org/2000/svg" width="336.753" height="307.279" viewBox="0 0 336.753 307.279">
  <g id="DiamondIcon" transform="translate(-162.797 -95)">
    <g id="Polygon_1" data-name="Polygon 1" transform="translate(412 236) rotate(180)">
      <path d="M 161.1361236572266 140.5 L 0.8638710379600525 140.5 L 81 1.003775596618652 L 161.1361236572266 140.5 Z" stroke="none"/>
      <path d="M 81 2.007522583007812 L 1.72772216796875 140 L 160.2722778320312 140 L 81 2.007522583007812 M 81 0 L 162 141 L 0 141 L 81 0 Z" stroke="none" fill="#707070"/>
    </g>
    <g id="Union_1" data-name="Union 1" transform="translate(4136.297 146)">
      <path d="M -3811.551513671875 255.0740203857422 L -3972.332763671875 94.29258728027344 L -3972.4794921875 94.14570617675781 L -3972.630859375 94.14601135253906 L -3891.89111328125 -45.00154495239258 L -3811.425537109375 94.36882019042969 L -3811.28076171875 94.61935424804688 L -3811.24755859375 94.61929321289062 L -3811.551513671875 255.0740203857422 Z" stroke="none"/>
      <path d="M -3891.892333984375 -44.00338745117188 L -3971.949951171875 93.96833038330078 L -3812.049072265625 253.869140625 L -3811.747802734375 94.81032562255859 L -3811.8583984375 94.61882019042969 L -3891.892333984375 -44.00338745117188 M -3891.89013671875 -45.9996337890625 L -3810.992431640625 94.11882019042969 L -3810.74658203125 94.11835479736328 L -3811.0537109375 256.27880859375 L -3972.686279296875 94.64612579345703 L -3973.500244140625 94.64785766601562 L -3891.89013671875 -45.9996337890625 Z" stroke="none" fill="#707070"/>
    </g>
    <g id="Union_2" data-name="Union 2" transform="translate(499.55 402.279) rotate(180)">
      <path d="M 81.6090087890625 301.2803649902344 L 0.8692688345909119 162.1327972412109 L 1.020632028579712 162.1331024169922 L 1.167516708374023 161.9862213134766 L 161.9485626220703 1.204789161682129 L 162.2524871826172 161.6595153808594 L 162.2192077636719 161.6594543457031 L 162.0745544433594 161.9099884033203 L 81.6090087890625 301.2803649902344 Z" stroke="none"/>
      <path d="M 81.60791778564453 300.2821960449219 L 161.7521209716797 161.4684143066406 L 161.4508514404297 2.409664630889893 L 1.550435304641724 162.3104553222656 L 81.60791778564453 300.2821960449219 M 81.61009216308594 302.2784423828125 L 1.667668220761698e-05 161.6309509277344 L 0.8139781951904297 161.6326751708984 L 162.4462890625 -9.577824130246881e-06 L 162.7534332275391 162.1604461669922 L 162.5075531005859 162.1599884033203 L 81.61009216308594 302.2784423828125 Z" stroke="none" fill="#707070"/>
    </g>
  </g>
</svg>
